<svg width="1600" height="640" viewBox="0 0 1600 640" fill="none" xmlns="http://www.w3.org/2000/svg" role="img" aria-labelledby="title desc">
<title id="title">React Flow UI Engine GitHub Banner</title><desc id="desc">GitHub social banner for React Flow UI Engine.</desc>
<defs><radialGradient id="bg" cx="0" cy="0" r="1" gradientUnits="userSpaceOnUse" gradientTransform="translate(1220 120) rotate(130) scale(900 900)"><stop stop-color="#3730A3"/><stop offset="0.48" stop-color="#111827"/><stop offset="1" stop-color="#020617"/></radialGradient><linearGradient id="g" x1="156" y1="140" x2="466" y2="452" gradientUnits="userSpaceOnUse"><stop stop-color="#38BDF8"/><stop offset="0.52" stop-color="#6366F1"/><stop offset="1" stop-color="#A855F7"/></linearGradient><linearGradient id="a" x1="190" y1="190" x2="402" y2="400" gradientUnits="userSpaceOnUse"><stop stop-color="#34D399"/><stop offset="1" stop-color="#22C55E"/></linearGradient></defs>
<rect width="1600" height="640" fill="url(#bg)"/><circle cx="1350" cy="150" r="260" fill="#6366F1" fill-opacity="0.15"/><circle cx="1480" cy="540" r="340" fill="#22C55E" fill-opacity="0.08"/>
<g opacity="0.18" stroke="#94A3B8"><path d="M1050 100H1510"/><path d="M1050 180H1510"/><path d="M1050 260H1510"/><path d="M1050 340H1510"/><path d="M1050 420H1510"/><path d="M1050 500H1510"/><path d="M1100 60V560"/><path d="M1200 60V560"/><path d="M1300 60V560"/><path d="M1400 60V560"/><path d="M1500 60V560"/></g>
<rect x="120" y="138" width="360" height="360" rx="88" fill="#0F172A" stroke="#1E293B" stroke-width="2"/>
<path d="M222 284C266 284 286 336 320 370C354 404 374 456 418 456" stroke="url(#g)" stroke-width="40" stroke-linecap="round"/><path d="M222 284C285 284 318 284 372 284" stroke="url(#a)" stroke-width="32" stroke-linecap="round"/><path d="M351 284L394 284L372 248" stroke="url(#a)" stroke-width="28" stroke-linecap="round" stroke-linejoin="round"/>
<circle cx="212" cy="284" r="54" fill="#F8FAFC"/><circle cx="372" cy="284" r="48" fill="#F8FAFC"/><circle cx="428" cy="456" r="54" fill="#F8FAFC"/><circle cx="212" cy="284" r="22" fill="url(#g)"/><rect x="347" y="259" width="50" height="50" rx="14" fill="url(#a)"/><path d="M407 456L425 474L455 438" stroke="url(#g)" stroke-width="15" stroke-linecap="round" stroke-linejoin="round"/>
<text x="560" y="245" font-family="Inter, ui-sans-serif, system-ui, -apple-system, BlinkMacSystemFont, Segoe UI, sans-serif" font-size="86" font-weight="850" fill="#F8FAFC">React Flow UI Engine</text>
<text x="565" y="320" font-family="Inter, ui-sans-serif, system-ui, -apple-system, BlinkMacSystemFont, Segoe UI, sans-serif" font-size="36" font-weight="500" fill="#CBD5E1">Build conditional React UI flows with navigation and content blocks.</text>
<rect x="565" y="372" width="196" height="54" rx="27" fill="#F8FAFC" fill-opacity="0.10" stroke="#94A3B8" stroke-opacity="0.35"/><text x="596" y="407" font-family="Inter, ui-sans-serif, system-ui, -apple-system, BlinkMacSystemFont, Segoe UI, sans-serif" font-size="22" font-weight="700" fill="#E2E8F0">TypeScript</text>
<rect x="780" y="372" width="158" height="54" rx="27" fill="#F8FAFC" fill-opacity="0.10" stroke="#94A3B8" stroke-opacity="0.35"/><text x="812" y="407" font-family="Inter, ui-sans-serif, system-ui, -apple-system, BlinkMacSystemFont, Segoe UI, sans-serif" font-size="22" font-weight="700" fill="#E2E8F0">React</text>
<rect x="958" y="372" width="274" height="54" rx="27" fill="#F8FAFC" fill-opacity="0.10" stroke="#94A3B8" stroke-opacity="0.35"/><text x="990" y="407" font-family="Inter, ui-sans-serif, system-ui, -apple-system, BlinkMacSystemFont, Segoe UI, sans-serif" font-size="22" font-weight="700" fill="#E2E8F0">Config-driven UI</text>
</svg>